<svg width="47" height="47" viewBox="0 0 47 47" fill="none" xmlns="http://www.w3.org/2000/svg">
<path d="M46.5834 7.66666V12.5H39.3334V19.75H34.5001V12.5H27.2501V7.66666H34.5001V0.416656H39.3334V7.66666H46.5834ZM26.0417 24.5833C27.0035 24.583 27.9257 24.2007 28.6055 23.5204C29.2853 22.8401 29.6671 21.9176 29.6667 20.9559C29.6664 19.9942 29.2841 19.072 28.6038 18.3921C27.9235 17.7123 27.0011 17.3306 26.0393 17.3309C25.5631 17.3311 25.0916 17.425 24.6517 17.6074C24.2118 17.7898 23.8122 18.057 23.4756 18.3939C23.139 18.7307 22.872 19.1305 22.6899 19.5705C22.5078 20.0106 22.4142 20.4821 22.4143 20.9583C22.4145 21.4345 22.5084 21.906 22.6908 22.3459C22.8732 22.7858 23.1404 23.1855 23.4773 23.5221C23.8141 23.8587 24.214 24.1257 24.654 24.3078C25.094 24.4898 25.5655 24.5835 26.0417 24.5833ZM34.5001 32.3988L33.2603 31.0213C32.8071 30.5166 32.2526 30.113 31.633 29.8366C31.0135 29.5603 30.3427 29.4175 29.6643 29.4175C28.986 29.4175 28.3152 29.5603 27.6956 29.8366C27.0761 30.113 26.5216 30.5166 26.0683 31.0213L24.483 32.7879L12.7501 19.75L5.50008 27.8047V12.5H22.4167V7.66666H5.50008C4.2182 7.66666 2.98882 8.17588 2.0824 9.08231C1.17597 9.98873 0.666748 11.2181 0.666748 12.5V41.5C0.666748 42.7819 1.17597 44.0112 2.0824 44.9177C2.98882 45.8241 4.2182 46.3333 5.50008 46.3333H34.5001C35.782 46.3333 37.0113 45.8241 37.9178 44.9177C38.8242 44.0112 39.3334 42.7819 39.3334 41.5V24.5833H34.5001V32.3988Z" fill="#093264"/>
</svg>
